<svg width="167" height="132" viewBox="0 0 167 132" fill="none" xmlns="http://www.w3.org/2000/svg">
<path d="M2.27574 38.9557C2.18028 38.307 2.50191 37.6681 3.07984 37.3584L5.64093 35.9859C27.7173 24.1551 53.3769 20.8671 77.723 26.7494L91.5225 120.53C67.1764 114.648 41.5167 117.936 19.4403 129.767L17.8175 130.637C16.8921 131.133 15.7549 130.56 15.602 129.521L2.27574 38.9557Z" fill="#E0E0E0"/>
<path d="M77.5942 26.8521L81.841 24.5762C103.452 12.9948 128.571 9.77614 152.404 15.5345C152.885 15.6508 153.248 16.0479 153.32 16.538L166.745 107.772C166.867 108.603 166.11 109.293 165.294 109.096C142.047 103.479 117.545 106.619 96.4644 117.916L91.3936 120.633L77.5942 26.8521Z" fill="#E0E0E0"/>
<path d="M4.21788 36.6567C4.12485 36.0245 4.4383 35.4019 5.00154 35.1L7.4975 33.7624C29.0126 22.2324 54.0199 19.0281 77.747 24.7608L91.1956 116.158C67.4685 110.425 42.4612 113.629 20.9461 125.159L19.3645 126.007C18.4626 126.49 17.3543 125.932 17.2053 124.92L4.21788 36.6567Z" fill="#FF84EF"/>
<path d="M77.6214 24.8609L81.7603 22.6429C102.822 11.3559 127.302 8.21908 150.529 13.831C150.998 13.9444 151.352 14.3314 151.422 14.8091L164.505 103.724C164.624 104.533 163.887 105.206 163.092 105.014C140.435 99.5396 116.556 102.599 96.0118 113.609L91.07 116.258L77.6214 24.8609Z" fill="#FF521E"/>
<path d="M17.0386 49.7715L20.3043 48.0326C35.9831 39.6841 54.141 37.2513 71.4645 41.1779V41.1779" stroke="white" stroke-width="4" stroke-linecap="round"/>
<path d="M89.3677 39.0293L92.6334 37.2904C108.312 28.942 126.47 26.5091 143.794 30.4357V30.4357" stroke="white" stroke-width="4" stroke-linecap="round"/>
<path d="M19.5454 65.1685L22.8111 63.4296C38.49 55.0811 56.6478 52.6482 73.9713 56.5749V56.5749" stroke="white" stroke-width="4" stroke-linecap="round"/>
<path d="M91.8745 54.4263L95.1402 52.6874C110.819 44.3389 128.977 41.9061 146.3 45.8327V45.8327" stroke="white" stroke-width="4" stroke-linecap="round"/>
<path d="M21.6934 80.5654L24.9591 78.8266C40.6379 70.4781 58.7958 68.0452 76.1193 71.9719V71.9719" stroke="white" stroke-width="4" stroke-linecap="round"/>
<path d="M94.0225 69.8233L97.2882 68.0844C112.967 59.7359 131.125 57.303 148.448 61.2297V61.2297" stroke="white" stroke-width="4" stroke-linecap="round"/>
<path d="M24.2002 96.3198L27.4659 94.581C43.1447 86.2325 61.3026 83.7996 78.6261 87.7263V87.7263" stroke="white" stroke-width="4" stroke-linecap="round"/>
<path d="M96.5293 85.5781L99.795 83.8393C115.474 75.4908 133.632 73.0579 150.955 76.9846V76.9846" stroke="white" stroke-width="4" stroke-linecap="round"/>
</svg>
