<svg width="250" height="66" viewBox="0 0 250 66" fill="none" xmlns="http://www.w3.org/2000/svg">
<path d="M6.19637 42.2337C6.1083 33.1622 5.13336 24.1033 5.00053 15.071C4.92352 9.83451 13.2423 21.6911 16.4465 25.8336C23.6861 35.1934 30.1248 45.1264 37.2883 54.5339C43.0329 62.0779 45.7019 64.1542 47.6238 53.4234C48.5967 47.9913 48.0488 37.7854 56.3364 42.0629C59.4054 43.6469 76.3012 59.7683 78.6303 52.5693C80.3876 47.1376 77.9742 32.633 77.4345 28.7378C76.7933 24.1104 75.7858 19.5366 75.2136 14.9002C74.9588 12.8356 73.3662 10.0047 74.9574 8.66472C76.2202 7.60131 77.4829 10.8358 78.4595 12.1668C81.3418 16.0953 83.7684 20.3392 86.4887 24.3815C89.8618 29.3938 93.1577 34.4637 96.7388 39.3296C100.462 44.3886 106.894 58.0775 110.064 52.6547C113.874 46.1378 106.334 37.9839 103.572 30.9587C103.399 30.5171 95.1281 12.2897 95.8846 8.40846C97.0712 2.3209 123.4 19.2973 125.952 20.7086C129.495 22.669 130.904 22.494 133.981 23.6128C140.629 26.0304 140.852 26.9821 145.256 21.4773C151.861 13.2209 166.428 17.6051 175.237 17.9752C179.56 18.1568 185.795 18.846 189.929 16.1814C197.797 11.111 185.822 14.7597 195.396 9.60431C210.153 1.65831 233.55 6.07569 249.294 7.63971C259.101 8.61391 268.492 9.94598 278.336 9.94598" stroke="#FF84EF" stroke-width="10" stroke-linecap="round"/>
</svg>
