<svg width="19" height="22" viewBox="0 0 19 22" fill="none" xmlns="http://www.w3.org/2000/svg">
<path d="M14.7083 8.59586V6.51253C14.7083 3.63605 12.3764 1.3042 9.49996 1.3042C6.62348 1.3042 4.29163 3.63605 4.29163 6.51253V8.59586M9.49996 13.2834V15.3667M6.16663 20.0542H12.8333C14.5835 20.0542 15.4585 20.0542 16.127 19.7136C16.715 19.414 17.1931 18.9359 17.4927 18.3479C17.8333 17.6794 17.8333 16.8044 17.8333 15.0542V13.5959C17.8333 11.8457 17.8333 10.9706 17.4927 10.3021C17.1931 9.71414 16.715 9.23607 16.127 8.93647C15.4585 8.59586 14.5835 8.59586 12.8333 8.59586H6.16663C4.41646 8.59586 3.54138 8.59586 2.87291 8.93647C2.2849 9.23607 1.80683 9.71414 1.50723 10.3021C1.16663 10.9706 1.16663 11.8457 1.16663 13.5959V15.0542C1.16663 16.8044 1.16663 17.6794 1.50723 18.3479C1.80683 18.9359 2.2849 19.414 2.87291 19.7136C3.54138 20.0542 4.41646 20.0542 6.16663 20.0542Z" stroke="#FF521E" stroke-width="2.08955" stroke-linecap="round" stroke-linejoin="round"/>
</svg>
