<svg width="19" height="21" viewBox="0 0 19 21" fill="none" xmlns="http://www.w3.org/2000/svg">
<path d="M4.95834 8.11971V6.13161C4.95834 3.38663 7.18359 1.16138 9.92858 1.16138C11.9667 1.16138 13.7183 2.38813 14.4852 4.14352M9.92858 12.5929V14.581M6.74762 19.0542H13.1095C14.7797 19.0542 15.6148 19.0542 16.2527 18.7292C16.8138 18.4433 17.27 17.9871 17.5559 17.426C17.881 16.788 17.881 15.953 17.881 14.2828V12.8911C17.881 11.221 17.881 10.3859 17.5559 9.74799C17.27 9.18686 16.8138 8.73065 16.2527 8.44474C15.6148 8.11971 14.7797 8.11971 13.1095 8.11971H6.74762C5.07747 8.11971 4.24239 8.11971 3.60447 8.44474C3.04335 8.73065 2.58714 9.18686 2.30123 9.74799C1.9762 10.3859 1.9762 11.221 1.9762 12.8911V14.2828C1.9762 15.953 1.9762 16.788 2.30123 17.426C2.58714 17.9871 3.04335 18.4433 3.60447 18.7292C4.24239 19.0542 5.07747 19.0542 6.74762 19.0542Z" stroke="#FF84EF" stroke-width="1.99403" stroke-linecap="round" stroke-linejoin="round"/>
</svg>
